# xmcd
#
# Track frame offsets:
#	150
#	39579
#	87172
#	116439
#	141792
#	177357
#	220277
#	248164
#
# Disc length: 3659 seconds
#
# Revision: 4
# Processed by: cddbd v1.5PL3 Copyright (c) Steve Scherf et al.
# Submitted via: CDex 1.50Beta5
#
DISCID=6b0e4908
DTITLE=Dave Brubeck - Take Five
DYEAR=1999
DGENRE=Jazz
TTITLE0=Tritonis
TTITLE1=Koto Song
TTITLE2=Improvisation
TTITLE3=Big Bad Basie
TTITLE4=(What Did I Do To Be So) Black And Blue
TTITLE5=Take Five
TTITLE6=Benjamin (Christopher David Brubeck)
TTITLE7=Blue Rondo A La Turk
EXTD=
EXTT0=
EXTT1=
EXTT2=
EXTT3=
EXTT4=
EXTT5=
EXTT6=
EXTT7=
PLAYORDER=
